<?xml version="1.0" encoding="utf-8"?>
<!-- Generator: Adobe Illustrator 26.2.1, SVG Export Plug-In . SVG Version: 6.00 Build 0)  -->
<svg version="1.1" id="Layer_1" xmlns="http://www.w3.org/2000/svg" xmlns:xlink="http://www.w3.org/1999/xlink" x="0px" y="0px"
	 viewBox="0 0 447.4 224" style="enable-background:new 0 0 447.4 224;" xml:space="preserve">
<path d="M-0.6,112c0.2,4,1.8,8.6,4.6,11.6l89.6,95.2c6.1,5.5,17.7,7.7,24.5,1.4c6.7-6.2,6.5-18.3-0.2-24.5l-63-66.9h375.7
	c9.3,0,16.8-7.5,16.8-16.8s-7.5-16.8-16.8-16.8H54.9l63-66.9c5.7-5.7,6.8-18.2,0.2-24.5c-6.6-6.3-18.7-4.3-24.5,1.4L4,100.5
	C0.9,103.7-0.6,107.6-0.6,112L-0.6,112z"/>
</svg>
