<?xml version="1.0" encoding="utf-8"?>
<!-- Generator: Adobe Illustrator 26.2.1, SVG Export Plug-In . SVG Version: 6.00 Build 0)  -->
<svg version="1.1" id="Layer_1" xmlns="http://www.w3.org/2000/svg" xmlns:xlink="http://www.w3.org/1999/xlink" x="0px" y="0px"
	 viewBox="0 0 390.2 390.2" style="enable-background:new 0 0 390.2 390.2;" xml:space="preserve">
<g>
	<path d="M195.1,390.2c107.5,0,195.1-87.5,195.1-195.1S302.6,0,195.1,0S0,87.5,0,195.1S87.5,390.2,195.1,390.2z M195.1,37.7
		c86.8,0,157.4,70.7,157.4,157.4s-70.6,157.4-157.4,157.4S37.8,281.8,37.8,195.1S108.4,37.7,195.1,37.7z"/>
	<path d="M195.1,214h62.9c10.4,0,18.9-8.5,18.9-18.9c0-10.5-8.5-18.9-18.9-18.9h-44.1V90.4c0-10.4-8.4-18.8-18.9-18.8
		c-10.4,0-18.9,8.4-18.9,18.8l0,104.7C176.2,205.5,184.7,214,195.1,214L195.1,214z"/>
</g>
</svg>
