<?xml version="1.0" encoding="utf-8"?>
<!-- Generator: Adobe Illustrator 26.2.1, SVG Export Plug-In . SVG Version: 6.00 Build 0)  -->
<svg version="1.1" id="Layer_1" xmlns="http://www.w3.org/2000/svg" xmlns:xlink="http://www.w3.org/1999/xlink" x="0px" y="0px"
	 viewBox="0 0 233.6 232.9" style="enable-background:new 0 0 233.6 232.9;" xml:space="preserve">
<g>
	<path d="M228.7,5.1c4.2,4.2,4.5,10.9,0.9,15.5l-0.9,1l-94.9,94.9l94.9,94.9c4.6,4.6,4.6,11.9,0,16.5c-4.2,4.2-10.9,4.5-15.5,0.9
		l-1-0.9L117.3,133l-94.9,94.9c-4.6,4.6-11.9,4.6-16.5,0c-4.2-4.2-4.5-10.9-0.9-15.5l0.9-1l94.9-94.9L6,21.6C1.4,17.1,1.4,9.7,6,5.1
		c4.2-4.2,10.9-4.5,15.5-0.9l1,0.9l94.9,94.9l94.9-94.9C216.8,0.6,224.1,0.6,228.7,5.1L228.7,5.1z"/>
</g>
</svg>
