<?xml version="1.0" encoding="utf-8"?>
<!-- Generator: Adobe Illustrator 26.2.1, SVG Export Plug-In . SVG Version: 6.00 Build 0)  -->
<svg version="1.1" id="Layer_1" xmlns="http://www.w3.org/2000/svg" xmlns:xlink="http://www.w3.org/1999/xlink" x="0px" y="0px"
	 viewBox="0 0 448 277.8" style="enable-background:new 0 0 448 277.8;" xml:space="preserve">
<path d="M224,0C73.4,0,0,138.9,0,138.9s81.2,138.9,224,138.9s224-138.9,224-138.9S374.6,0,224,0z M224,248.6
	c-60.5,0-109.8-49.3-109.8-109.8S163.5,29.1,224,29.1s109.8,49.3,109.8,109.8S284.5,248.6,224,248.6z"/>
<path d="M224,90.7c-26.9,0-48.2,21.8-48.2,48.2c0,26.9,21.8,48.2,48.2,48.2s48.2-21.8,48.2-48.2C272.2,112,250.9,90.7,224,90.7z"/>
</svg>
