<?xml version="1.0" encoding="utf-8"?>
<!-- Generator: Adobe Illustrator 26.2.1, SVG Export Plug-In . SVG Version: 6.00 Build 0)  -->
<svg version="1.1" id="Layer_1" xmlns="http://www.w3.org/2000/svg" xmlns:xlink="http://www.w3.org/1999/xlink" x="0px" y="0px"
	 viewBox="0 0 560.1 552.2" style="enable-background:new 0 0 560.1 552.2;" xml:space="preserve">
<path d="M13.1,97h81.4c6.2,35.7,37.4,63,74.9,63s68.7-27.2,74.9-63h302.5c7.2,0,13.1-5.9,13.1-13.1s-5.9-13.1-13.1-13.1H244.3
	c-6.2-35.7-37.4-62.9-74.9-62.9c-37.5,0-68.6,27.2-74.9,63H13.1C5.9,70.8,0,76.7,0,83.9S5.9,97,13.1,97L13.1,97z M169.4,34.1
	c27.5,0,49.9,22.3,49.9,49.9c0,27.5-22.3,49.9-49.9,49.9c-27.5,0-49.9-22.3-49.9-49.9C119.5,56.4,141.9,34.1,169.4,34.1z
	 M546.9,266.9H489c-6.2-35.7-37.4-63-74.9-63s-68.7,27.3-74.9,63h-326C5.9,266.9,0,272.8,0,280s5.9,13.1,13.1,13.1h326.1
	c6.2,35.7,37.4,63,74.9,63s68.7-27.2,74.9-63h57.8c7.2,0,13.1-5.9,13.1-13.1S554.1,266.9,546.9,266.9L546.9,266.9z M414.2,329.9
	c-27.5,0-49.9-22.3-49.9-49.9c0-27.5,22.3-49.9,49.9-49.9c27.5,0,49.9,22.3,49.9,49.9C464,307.5,441.6,329.9,414.2,329.9
	L414.2,329.9z M546.9,462.9H244.3c-6.2-35.7-37.4-63-74.9-63c-37.5,0-68.6,27.3-74.9,63H13.1c-7.2,0-13.1,5.9-13.1,13.1
	s5.9,13.1,13.1,13.1h81.4c6.2,35.7,37.4,63,74.9,63s68.7-27.3,74.9-63h302.5c7.2,0,13.1-5.9,13.1-13.1S554.1,462.9,546.9,462.9
	L546.9,462.9z M169.4,525.9c-27.5,0-49.9-22.3-49.9-49.9c0-27.5,22.3-49.9,49.9-49.9c27.5,0,49.9,22.3,49.9,49.9
	C219.3,503.6,196.9,525.9,169.4,525.9z"/>
</svg>
