<?xml version="1.0" encoding="utf-8"?>
<!-- Generator: Adobe Illustrator 26.2.1, SVG Export Plug-In . SVG Version: 6.00 Build 0)  -->
<svg version="1.1" id="Layer_1" xmlns="http://www.w3.org/2000/svg" xmlns:xlink="http://www.w3.org/1999/xlink" x="0px" y="0px"
	 viewBox="0 0 560 503.3" style="enable-background:new 0 0 560 503.3;" xml:space="preserve">
<path d="M560,247.9c0.4,9.5-3.2,18.6-9.9,25.3c-6.7,6.7-15.9,10.2-25.4,9.7h-38.4v9.9v156v0c0.3,14.4-5.3,28.4-15.5,38.6
	c-10.2,10.2-24.1,15.9-38.6,15.6h-78.9c-15.8,0-24.1-8.3-24.1-24.4V387c0-24.6-12.3-42.2-33.6-49.6c-30-10.4-63.2,10.8-64.3,42.4
	s-0.9,64.7-0.4,97.1c0,16-8.7,26.9-26.3,26.3c-25.9-0.8-51.8,0-77.7,0v0c-14.1,0.1-27.7-5.5-37.7-15.4c-10-10-15.6-23.5-15.6-37.6
	V295.4v-12.5H36.9c-23.8,0-37.3-13.7-36.9-37.5l0,0c-0.2-10.3,0.5-20.6,2-30.7c2.6-12.4,9.7-23.5,20-30.9
	C94.7,127.4,167.4,70.9,240,14.4C251.2,5.1,265.4,0,280,0s28.7,5.1,40,14.4C392.2,70.7,464.5,127,536.9,183.2
	c15,11,23.6,28.6,23.1,47.1L560,247.9L560,247.9z"/>
</svg>
