<?xml version="1.0" encoding="utf-8"?>
<!-- Generator: Adobe Illustrator 26.2.1, SVG Export Plug-In . SVG Version: 6.00 Build 0)  -->
<svg version="1.1" id="Layer_1" xmlns="http://www.w3.org/2000/svg" xmlns:xlink="http://www.w3.org/1999/xlink" x="0px" y="0px"
	 viewBox="0 0 492.8 492.8" style="enable-background:new 0 0 492.8 492.8;" xml:space="preserve">
<path d="M76.6,11.8C61.9,26.6,47.2,41.3,32.5,56c-45.7,49.7-34.3,106-19,150.1c20.3,55.8,61.5,113.7,111.3,163.1
	s108.1,90.2,163.8,110.4c55.8,20.2,111.2,19.5,148.6-18c14.7-14.7,29.4-29.5,44.1-44.2c15.3-15.6,15.3-40.9,0-56.5
	c-24.7-24.7-49.7-49.7-70.9-70.8c-19.6-18.5-43.4-12.4-56.3,0c-13,12.9-26.2,26.1-37.4,37.2c-16.1,14.4-35.8,9.7-46.1,0L166.5,222.9
	c-12.7-12.7-12.7-33.4,0-46.1c12.4-12.4,24.7-24.9,37.1-37.4c16.6-16.6,15.1-42.6,0.1-56.5l0,0l-0.1-0.1l-70.5-70.8
	C114.6-5.9,91.8-1.9,76.6,11.8L76.6,11.8z M117.3,27.9l70.5,70.8c7.9,8.6,7.8,16.8,0,24.7l-37.2,37.5c-26.4,25.8-20.5,56.8,0,78
	l104.2,104.4c21.4,21.4,56.4,21.4,77.8,0c13.1-13,26.3-26.2,37.5-37.3c6.7-6.9,17.7-6.9,24.4,0c23.6,23.6,47.2,47.1,70.8,70.7
	c6.8,7,6.8,18,0,25l-43.9,44c-29.7,29.8-73.7,31.3-125.1,12.7s-107.7-57.7-155.6-105.2c-47.9-47.5-87.4-103.6-106-154.8
	c-18.7-51.2-17-95.5,13.7-126.4c14.6-14.7,29.3-29.3,43.9-44C100.9,19.9,109.4,20.1,117.3,27.9L117.3,27.9z"/>
</svg>
