<?xml version="1.0" encoding="utf-8"?>
<!-- Generator: Adobe Illustrator 26.2.1, SVG Export Plug-In . SVG Version: 6.00 Build 0)  -->
<svg version="1.1" id="Layer_1" xmlns="http://www.w3.org/2000/svg" xmlns:xlink="http://www.w3.org/1999/xlink" x="0px" y="0px"
	 viewBox="0 0 459.2 380.8" style="enable-background:new 0 0 459.2 380.8;" xml:space="preserve">
<path d="M61.6,380.8C27.7,380.8,0,353.1,0,319.2V117.6C0,83.7,27.7,56,61.6,56h59.7l19.6-48.8l0,0c1.6-4.3,5.7-7.1,10.3-7.2H308h0
	c4.6,0.1,8.7,2.9,10.3,7.2L337.9,56h59.7c33.9,0,61.6,27.7,61.6,61.6v201.6c0,33.9-27.7,61.6-61.6,61.6L61.6,380.8L61.6,380.8z
	 M61.6,358.4h336c21.9,0,39.2-17.3,39.2-39.2V117.6c0-21.9-17.3-39.2-39.2-39.2h-67.2v0c-4.5,0-8.6-2.8-10.3-7l-19.6-49H158.7
	l-19.6,49c-1.7,4.2-5.8,7-10.3,7H61.6c-21.9,0-39.2,17.3-39.2,39.2v201.6C22.4,341.1,39.7,358.4,61.6,358.4L61.6,358.4z
	 M229.6,324.8c-58.6,0-106.4-47.8-106.4-106.4c0-58.6,47.8-106.4,106.4-106.4c58.6,0,106.4,47.8,106.4,106.4
	S288.2,324.8,229.6,324.8z M229.6,302.4c46.5,0,84-37.5,84-84s-37.5-84-84-84s-84,37.5-84,84S183.1,302.4,229.6,302.4z"/>
</svg>
