<?xml version="1.0" encoding="utf-8"?>
<!-- Generator: Adobe Illustrator 26.2.1, SVG Export Plug-In . SVG Version: 6.00 Build 0)  -->
<svg version="1.1" id="Layer_1" xmlns="http://www.w3.org/2000/svg" xmlns:xlink="http://www.w3.org/1999/xlink" x="0px" y="0px"
	 viewBox="0 0 534.7 534.5" style="enable-background:new 0 0 534.7 534.5;" xml:space="preserve">
<path d="M528.2,496.7l-131-130.9c32.8-40,50.8-90.1,50.8-141.9c0-123.5-100.5-224-224-224c-30.2,0-59.5,5.9-87.1,17.6
	c-26.7,11.3-50.6,27.5-71.2,48S29,110.1,17.7,136.8C6,164.4,0,193.8,0,223.9c0,123.5,100.5,224,224,224c51.8,0,101.8-18,141.9-50.8
	L496.7,528c4.2,4.2,9.8,6.5,15.7,6.5c6,0,11.5-2.3,15.7-6.5C536.9,519.4,536.9,505.4,528.2,496.7L528.2,496.7z M403.7,223.9
	c0,99.1-80.6,179.6-179.6,179.6C125,403.6,44.4,323,44.4,223.9S125,44.3,224.1,44.3S403.7,124.9,403.7,223.9z"/>
</svg>
