<?xml version="1.0" encoding="utf-8"?>
<!-- Generator: Adobe Illustrator 26.2.1, SVG Export Plug-In . SVG Version: 6.00 Build 0)  -->
<svg version="1.1" id="Layer_1" xmlns="http://www.w3.org/2000/svg" xmlns:xlink="http://www.w3.org/1999/xlink" x="0px" y="0px"
	 viewBox="0 0 246.4 388.7" style="enable-background:new 0 0 246.4 388.7;" xml:space="preserve">
<style type="text/css">
	.st0{fill-rule:evenodd;clip-rule:evenodd;}
</style>
<path class="st0" d="M132.9,4.1l87.6,88.5c10.5,10.6-5.3,26.4-15.8,15.8L138.4,42c-2.2-2.2-4-1.5-4,1.6v202.6
	c0,6.2-5,11.2-11.2,11.2c-6.2,0-11.2-5-11.2-11.2V43.6c0-3.1-1.8-3.8-4-1.6l-66.4,66.5c-10.5,10.6-26.3-5.3-15.8-15.8l87.3-88.5
	C118.6-1.4,127.4-1.4,132.9,4.1L132.9,4.1z M67.2,142.3c6.2,0,11.2,5,11.2,11.2c0,6.2-5,11.2-11.2,11.2H28c-3.1,0-5.6,2.5-5.6,5.6
	v190.3c0,3.1,2.5,5.6,5.6,5.6h190.3c3.1,0,5.6-2.5,5.6-5.6V170.4c0-3.1-2.5-5.6-5.6-5.6h-39.2c-6.2,0-11.2-5-11.2-11.2
	c0-6.2,5-11.2,11.2-11.2h39.2c15.4,0,28,12.6,28,28v190.3c0,15.5-12.5,28-28,28H28c-15.5,0-28-12.5-28-28V170.4
	c0-15.5,12.5-28,28-28L67.2,142.3z"/>
</svg>
