<?xml version="1.0" encoding="utf-8"?>
<!-- Generator: Adobe Illustrator 26.2.1, SVG Export Plug-In . SVG Version: 6.00 Build 0)  -->
<svg version="1.1" id="Layer_1" xmlns="http://www.w3.org/2000/svg" xmlns:xlink="http://www.w3.org/1999/xlink" x="0px" y="0px"
	 viewBox="0 0 558.7 560" style="enable-background:new 0 0 558.7 560;" xml:space="preserve">
<path d="M476.6,477c-47.7,49.8-114.1,78.8-186.7,83h-20.7c-74.7-4.1-139-33.2-188.7-83C-87.5,309,22.4,10.4,269.2,0H290
	C536.8,10.4,646.7,309,476.6,477z M464.2,97.5c-12.4,12.4-51.9,39.4-72.6,45.6c8.3,35.3,14.5,74.7,14.5,114.1h130.7
	C532.6,197,503.6,141,464.2,97.5L464.2,97.5z M370.9,151.4C346,159.7,319,165.9,290,168v89.2h95.4
	C383.3,219.9,379.2,184.6,370.9,151.4L370.9,151.4z M290,145.2c27,0,51.9-6.2,74.7-14.5C354.3,93.3,329.4,33.2,290,22.8V145.2z
	 M385.4,122.4c6.2-2.1,45.6-22.8,62.2-39.4c-31.1-27-70.5-45.6-112-56C360.5,53.9,375,89.2,385.4,122.4z M22.4,257.2H151
	c2.1-39.4,8.3-78.8,16.6-114.1c-27-10.4-51.9-27-72.6-45.6C53.5,141.1,26.6,197.1,22.4,257.2L22.4,257.2z M173.8,122.4
	c8.3-33.2,24.9-68.4,49.8-95.4c-43.6,10.4-80.9,29-112,56C130.3,99.6,151,112,173.8,122.4z M173.8,257.2h95.4V168
	c-29-2.1-56-8.3-80.9-16.6C180,184.6,175.9,219.9,173.8,257.2L173.8,257.2z M269.2,145.2V22.8c-39.4,10.4-64.3,70.5-76.7,107.8
	C217.4,139,242.3,145.2,269.2,145.2z M536.8,280H408.2c0,41.5-4.1,83-14.5,124.5c29,12.4,53.9,29,76.7,49.8
	C511.9,408.6,536.8,346.4,536.8,280L536.8,280z M389.5,425.2c-10.4,37.3-27,78.8-53.9,105.8c45.6-8.3,87.1-31.1,120.3-62.2
	C435.2,452.2,414.4,435.6,389.5,425.2L389.5,425.2z M385.4,280H290v99.6c29,0,58.1,6.2,85,16.6C381.2,356.8,385.4,317.4,385.4,280
	L385.4,280z M290,400.3v136.9c43.6-12.4,68.4-80.9,78.8-120.3C343.9,406.5,316.9,402.4,290,400.3L290,400.3z M269.2,280h-95.4
	c0,37.3,2.1,76.7,10.4,116.1c27-10.4,56-16.6,85-16.6V280z M190.4,416.9c10.4,39.4,35.3,107.8,78.8,120.3V400.3
	C240.2,402.4,215.3,406.5,190.4,416.9L190.4,416.9z M151,280H20.3c0,66.4,27,128.6,68.4,174.2c22.8-20.7,47.7-37.3,74.7-49.8
	C155.2,363,151,321.5,151,280L151,280z M103.3,468.8c33.2,31.1,74.7,53.9,120.3,62.2c-27-27-43.6-68.4-53.9-105.8
	C144.8,435.6,124,452.2,103.3,468.8L103.3,468.8z"/>
</svg>
